ISO-10303-21;
HEADER;
FILE_DESCRIPTION(('ViewDefinition [CoordinationView]'),'2;1');
FILE_NAME('template_ifc_viktor_friendly.ifc','2026-07-25T00:00:00',('IDEA StatiCa sensitivity example'),('VIKTOR-friendly IFC conversion'),'IfcOpenShell 0.8.5-1c5b825','IfcOpenShell 0.8.5-1c5b825','');
FILE_SCHEMA(('IFC2X3'));
ENDSEC;
DATA;
#1=IFCORGANIZATION($,'VIKTOR-friendly IFC conversion',$,$,$);
#2=IFCAPPLICATION(#1,'1.0','VIKTOR-friendly IFC generator','VIKTOR_IFC');
#3=IFCPERSON($,'Base plate display model',$,$,$,$,$,$);
#4=IFCPERSONANDORGANIZATION(#3,#1,$);
#5=IFCOWNERHISTORY(#4,#2,$,.ADDED.,$,$,$,1785023793);
#6=IFCCARTESIANPOINT((0.,0.,0.));
#7=IFCDIRECTION((0.,0.,1.));
#8=IFCDIRECTION((1.,0.,0.));
#9=IFCAXIS2PLACEMENT3D(#6,#7,#8);
#10=IFCGEOMETRICREPRESENTATIONCONTEXT($,'Model',3,1.0000000000000001E-05,#9,$);
#11=IFCSIUNIT(*,.LENGTHUNIT.,$,.METRE.);
#12=IFCUNITASSIGNMENT((#11));
#13=IFCPROJECT('0D_9kPpbz3RgWkmzAYlrrs',#5,'IDEA StatiCa RHS base-plate display model',$,$,$,$,(#10),#12);
#14=IFCCARTESIANPOINT((0.,0.,0.));
#15=IFCDIRECTION((0.,0.,1.));
#16=IFCDIRECTION((1.,0.,0.));
#17=IFCAXIS2PLACEMENT3D(#14,#15,#16);
#18=IFCLOCALPLACEMENT($,#17);
#19=IFCSITE('0C88rmoEH6lOkEIhffxziy',#5,'Base plate site',$,$,#18,$,$,.ELEMENT.,$,$,$,$,$);
#20=IFCCARTESIANPOINT((0.,0.,0.));
#21=IFCDIRECTION((0.,0.,1.));
#22=IFCDIRECTION((1.,0.,0.));
#23=IFCAXIS2PLACEMENT3D(#20,#21,#22);
#24=IFCLOCALPLACEMENT(#18,#23);
#25=IFCBUILDING('2FnXptGzz3OO7PrJNJBFpu',#5,'Base plate assembly',$,$,#24,$,$,.ELEMENT.,$,$,$);
#26=IFCCARTESIANPOINT((0.,0.,0.));
#27=IFCDIRECTION((0.,0.,1.));
#28=IFCDIRECTION((1.,0.,0.));
#29=IFCAXIS2PLACEMENT3D(#26,#27,#28);
#30=IFCLOCALPLACEMENT(#24,#29);
#31=IFCBUILDINGSTOREY('3snGrVw9PFBRxx_yx5GmbG',#5,'Connection',$,$,#30,$,$,.ELEMENT.,0.);
#32=IFCRELAGGREGATES('2XUqtayAb0bRJ17Ex6NGLC',#5,$,$,#13,(#19));
#33=IFCRELAGGREGATES('2Z$Y5vTk5AIPMmdYJsynsQ',#5,$,$,#19,(#25));
#34=IFCRELAGGREGATES('14gt2cBfzB5QZiQoEIiJxw',#5,$,$,#25,(#31));
#35=IFCCOLOURRGB('Structural steel',0.14000000000000001,0.32000000000000001,0.5);
#36=IFCSURFACESTYLERENDERING(#35,0.,$,$,$,$,$,$,.MATT.);
#37=IFCSURFACESTYLE('Structural steel',.BOTH.,(#36));
#38=IFCPRESENTATIONSTYLEASSIGNMENT((#37));
#39=IFCCOLOURRGB('Base plate',0.92000000000000004,0.38,0.080000000000000002);
#40=IFCSURFACESTYLERENDERING(#39,0.,$,$,$,$,$,$,.MATT.);
#41=IFCSURFACESTYLE('Base plate',.BOTH.,(#40));
#42=IFCPRESENTATIONSTYLEASSIGNMENT((#41));
#43=IFCCOLOURRGB('Anchors',0.94999999999999996,0.68000000000000005,0.12);
#44=IFCSURFACESTYLERENDERING(#43,0.,$,$,$,$,$,$,.MATT.);
#45=IFCSURFACESTYLE('Anchors',.BOTH.,(#44));
#46=IFCPRESENTATIONSTYLEASSIGNMENT((#45));
#47=IFCCOLOURRGB('Welds',0.81999999999999995,0.12,0.10000000000000001);
#48=IFCSURFACESTYLERENDERING(#47,0.,$,$,$,$,$,$,.MATT.);
#49=IFCSURFACESTYLE('Welds',.BOTH.,(#48));
#50=IFCPRESENTATIONSTYLEASSIGNMENT((#49));
#51=IFCCOLOURRGB('Concrete',0.55000000000000004,0.59999999999999998,0.65000000000000002);
#52=IFCSURFACESTYLERENDERING(#51,0.71999999999999997,$,$,$,$,$,$,.MATT.);
#53=IFCSURFACESTYLE('Concrete',.BOTH.,(#52));
#54=IFCPRESENTATIONSTYLEASSIGNMENT((#53));
#55=IFCCARTESIANPOINT((0.,0.));
#56=IFCAXIS2PLACEMENT2D(#55,$);
#57=IFCRECTANGLEPROFILEDEF(.AREA.,$,#56,0.29999999999999999,0.012500000000000001);
#58=IFCCARTESIANPOINT((0.,-0.11874999999999999,0.));
#59=IFCDIRECTION((0.,0.,1.));
#60=IFCDIRECTION((1.,0.,0.));
#61=IFCAXIS2PLACEMENT3D(#58,#59,#60);
#62=IFCDIRECTION((0.,0.,1.));
#63=IFCEXTRUDEDAREASOLID(#57,#61,#62,0.59999999999999998);
#64=IFCCARTESIANPOINT((0.,0.));
#65=IFCAXIS2PLACEMENT2D(#64,$);
#66=IFCRECTANGLEPROFILEDEF(.AREA.,$,#65,0.29999999999999999,0.012500000000000001);
#67=IFCCARTESIANPOINT((0.,0.11874999999999999,0.));
#68=IFCDIRECTION((0.,0.,1.));
#69=IFCDIRECTION((1.,0.,0.));
#70=IFCAXIS2PLACEMENT3D(#67,#68,#69);
#71=IFCDIRECTION((0.,0.,1.));
#72=IFCEXTRUDEDAREASOLID(#66,#70,#71,0.59999999999999998);
#73=IFCCARTESIANPOINT((0.,0.));
#74=IFCAXIS2PLACEMENT2D(#73,$);
#75=IFCRECTANGLEPROFILEDEF(.AREA.,$,#74,0.012500000000000001,0.22500000000000001);
#76=IFCCARTESIANPOINT((-0.14374999999999999,0.,0.));
#77=IFCDIRECTION((0.,0.,1.));
#78=IFCDIRECTION((1.,0.,0.));
#79=IFCAXIS2PLACEMENT3D(#76,#77,#78);
#80=IFCDIRECTION((0.,0.,1.));
#81=IFCEXTRUDEDAREASOLID(#75,#79,#80,0.59999999999999998);
#82=IFCCARTESIANPOINT((0.,0.));
#83=IFCAXIS2PLACEMENT2D(#82,$);
#84=IFCRECTANGLEPROFILEDEF(.AREA.,$,#83,0.012500000000000001,0.22500000000000001);
#85=IFCCARTESIANPOINT((0.14374999999999999,0.,0.));
#86=IFCDIRECTION((0.,0.,1.));
#87=IFCDIRECTION((1.,0.,0.));
#88=IFCAXIS2PLACEMENT3D(#85,#86,#87);
#89=IFCDIRECTION((0.,0.,1.));
#90=IFCEXTRUDEDAREASOLID(#84,#88,#89,0.59999999999999998);
#91=IFCCARTESIANPOINT((0.,0.,0.));
#92=IFCDIRECTION((0.,0.,1.));
#93=IFCDIRECTION((1.,0.,0.));
#94=IFCAXIS2PLACEMENT3D(#91,#92,#93);
#95=IFCLOCALPLACEMENT(#30,#94);
#96=IFCSTYLEDITEM(#63,(#38),'Structural steel');
#97=IFCSTYLEDITEM(#72,(#38),'Structural steel');
#98=IFCSTYLEDITEM(#81,(#38),'Structural steel');
#99=IFCSTYLEDITEM(#90,(#38),'Structural steel');
#100=IFCSHAPEREPRESENTATION(#10,'Body','SweptSolid',(#63,#72,#81,#90));
#101=IFCPRODUCTDEFINITIONSHAPE($,$,(#100));
#102=IFCCOLUMN('3MrTSW1_v08f2Vx2aA8EVz',#5,'RHS column',$,$,#95,#101,$);
#103=IFCCARTESIANPOINT((0.,0.,0.));
#104=IFCDIRECTION((0.,0.,1.));
#105=IFCDIRECTION((1.,0.,0.));
#106=IFCAXIS2PLACEMENT3D(#103,#104,#105);
#107=IFCLOCALPLACEMENT(#30,#106);
#108=IFCCARTESIANPOINT((0.,0.));
#109=IFCAXIS2PLACEMENT2D(#108,$);
#110=IFCRECTANGLEPROFILEDEF(.AREA.,$,#109,1.0600000000000001,1.01);
#111=IFCCARTESIANPOINT((0.,0.,-0.62));
#112=IFCDIRECTION((0.,0.,1.));
#113=IFCDIRECTION((1.,0.,0.));
#114=IFCAXIS2PLACEMENT3D(#111,#112,#113);
#115=IFCDIRECTION((0.,0.,1.));
#116=IFCEXTRUDEDAREASOLID(#110,#114,#115,0.59999999999999998);
#117=IFCSTYLEDITEM(#116,(#54),'Concrete');
#118=IFCSHAPEREPRESENTATION(#10,'Body','SweptSolid',(#116));
#119=IFCPRODUCTDEFINITIONSHAPE($,$,(#118));
#120=IFCFOOTING('3$Fl8F7fLFpP2o8JbzKSUy',#5,'Concrete block',$,$,#107,#119,$,.PAD_FOOTING.);
#121=IFCCARTESIANPOINT((0.,0.,0.));
#122=IFCDIRECTION((0.,0.,1.));
#123=IFCDIRECTION((1.,0.,0.));
#124=IFCAXIS2PLACEMENT3D(#121,#122,#123);
#125=IFCLOCALPLACEMENT(#30,#124);
#126=IFCCARTESIANPOINT((0.,0.));
#127=IFCAXIS2PLACEMENT2D(#126,$);
#128=IFCRECTANGLEPROFILEDEF(.AREA.,$,#127,0.46000000000000002,0.40999999999999998);
#129=IFCCARTESIANPOINT((0.,0.,-0.02));
#130=IFCDIRECTION((0.,0.,1.));
#131=IFCDIRECTION((1.,0.,0.));
#132=IFCAXIS2PLACEMENT3D(#129,#130,#131);
#133=IFCDIRECTION((0.,0.,1.));
#134=IFCEXTRUDEDAREASOLID(#128,#132,#133,0.02);
#135=IFCSTYLEDITEM(#134,(#42),'Base plate');
#136=IFCSHAPEREPRESENTATION(#10,'Body','SweptSolid',(#134));
#137=IFCPRODUCTDEFINITIONSHAPE($,$,(#136));
#138=IFCPLATE('1f7mpxnhnEFB318Kk0eY9W',#5,'Base plate',$,$,#125,#137,$);
#139=IFCCARTESIANPOINT((-0.19,-0.16500000000000001,0.));
#140=IFCDIRECTION((0.,0.,1.));
#141=IFCDIRECTION((1.,0.,0.));
#142=IFCAXIS2PLACEMENT3D(#139,#140,#141);
#143=IFCLOCALPLACEMENT(#30,#142);
#144=IFCCARTESIANPOINT((0.,0.));
#145=IFCAXIS2PLACEMENT2D(#144,$);
#146=IFCCIRCLEPROFILEDEF(.AREA.,$,#145,0.012);
#147=IFCCARTESIANPOINT((0.,0.,-0.32000000000000001));
#148=IFCDIRECTION((0.,0.,1.));
#149=IFCDIRECTION((1.,0.,0.));
#150=IFCAXIS2PLACEMENT3D(#147,#148,#149);
#151=IFCDIRECTION((0.,0.,1.));
#152=IFCEXTRUDEDAREASOLID(#146,#150,#151,0.34999999999999998);
#153=IFCCARTESIANPOINT((0.,0.));
#154=IFCAXIS2PLACEMENT2D(#153,$);
#155=IFCCIRCLEPROFILEDEF(.AREA.,$,#154,0.021999999999999999);
#156=IFCCARTESIANPOINT((0.,0.,0.019));
#157=IFCDIRECTION((0.,0.,1.));
#158=IFCDIRECTION((1.,0.,0.));
#159=IFCAXIS2PLACEMENT3D(#156,#157,#158);
#160=IFCDIRECTION((0.,0.,1.));
#161=IFCEXTRUDEDAREASOLID(#155,#159,#160,0.012);
#162=IFCSTYLEDITEM(#152,(#46),'Anchors');
#163=IFCSTYLEDITEM(#161,(#46),'Anchors');
#164=IFCSHAPEREPRESENTATION(#10,'Body','SweptSolid',(#152,#161));
#165=IFCPRODUCTDEFINITIONSHAPE($,$,(#164));
#166=IFCMECHANICALFASTENER('3eSFefUDb9D93o5XDkNmeo',#5,'Anchor 1',$,$,#143,#165,$,0.024,0.34999999999999998);
#167=IFCCARTESIANPOINT((-0.19,0.16500000000000001,0.));
#168=IFCDIRECTION((0.,0.,1.));
#169=IFCDIRECTION((1.,0.,0.));
#170=IFCAXIS2PLACEMENT3D(#167,#168,#169);
#171=IFCLOCALPLACEMENT(#30,#170);
#172=IFCCARTESIANPOINT((0.,0.));
#173=IFCAXIS2PLACEMENT2D(#172,$);
#174=IFCCIRCLEPROFILEDEF(.AREA.,$,#173,0.012);
#175=IFCCARTESIANPOINT((0.,0.,-0.32000000000000001));
#176=IFCDIRECTION((0.,0.,1.));
#177=IFCDIRECTION((1.,0.,0.));
#178=IFCAXIS2PLACEMENT3D(#175,#176,#177);
#179=IFCDIRECTION((0.,0.,1.));
#180=IFCEXTRUDEDAREASOLID(#174,#178,#179,0.34999999999999998);
#181=IFCCARTESIANPOINT((0.,0.));
#182=IFCAXIS2PLACEMENT2D(#181,$);
#183=IFCCIRCLEPROFILEDEF(.AREA.,$,#182,0.021999999999999999);
#184=IFCCARTESIANPOINT((0.,0.,0.019));
#185=IFCDIRECTION((0.,0.,1.));
#186=IFCDIRECTION((1.,0.,0.));
#187=IFCAXIS2PLACEMENT3D(#184,#185,#186);
#188=IFCDIRECTION((0.,0.,1.));
#189=IFCEXTRUDEDAREASOLID(#183,#187,#188,0.012);
#190=IFCSTYLEDITEM(#180,(#46),'Anchors');
#191=IFCSTYLEDITEM(#189,(#46),'Anchors');
#192=IFCSHAPEREPRESENTATION(#10,'Body','SweptSolid',(#180,#189));
#193=IFCPRODUCTDEFINITIONSHAPE($,$,(#192));
#194=IFCMECHANICALFASTENER('0Y_Tu5SD96$RtWOpm4I4d$',#5,'Anchor 2',$,$,#171,#193,$,0.024,0.34999999999999998);
#195=IFCCARTESIANPOINT((0.19,-0.16500000000000001,0.));
#196=IFCDIRECTION((0.,0.,1.));
#197=IFCDIRECTION((1.,0.,0.));
#198=IFCAXIS2PLACEMENT3D(#195,#196,#197);
#199=IFCLOCALPLACEMENT(#30,#198);
#200=IFCCARTESIANPOINT((0.,0.));
#201=IFCAXIS2PLACEMENT2D(#200,$);
#202=IFCCIRCLEPROFILEDEF(.AREA.,$,#201,0.012);
#203=IFCCARTESIANPOINT((0.,0.,-0.32000000000000001));
#204=IFCDIRECTION((0.,0.,1.));
#205=IFCDIRECTION((1.,0.,0.));
#206=IFCAXIS2PLACEMENT3D(#203,#204,#205);
#207=IFCDIRECTION((0.,0.,1.));
#208=IFCEXTRUDEDAREASOLID(#202,#206,#207,0.34999999999999998);
#209=IFCCARTESIANPOINT((0.,0.));
#210=IFCAXIS2PLACEMENT2D(#209,$);
#211=IFCCIRCLEPROFILEDEF(.AREA.,$,#210,0.021999999999999999);
#212=IFCCARTESIANPOINT((0.,0.,0.019));
#213=IFCDIRECTION((0.,0.,1.));
#214=IFCDIRECTION((1.,0.,0.));
#215=IFCAXIS2PLACEMENT3D(#212,#213,#214);
#216=IFCDIRECTION((0.,0.,1.));
#217=IFCEXTRUDEDAREASOLID(#211,#215,#216,0.012);
#218=IFCSTYLEDITEM(#208,(#46),'Anchors');
#219=IFCSTYLEDITEM(#217,(#46),'Anchors');
#220=IFCSHAPEREPRESENTATION(#10,'Body','SweptSolid',(#208,#217));
#221=IFCPRODUCTDEFINITIONSHAPE($,$,(#220));
#222=IFCMECHANICALFASTENER('0kZFh9ugH7UwJ6WpTVbo7R',#5,'Anchor 3',$,$,#199,#221,$,0.024,0.34999999999999998);
#223=IFCCARTESIANPOINT((0.19,0.16500000000000001,0.));
#224=IFCDIRECTION((0.,0.,1.));
#225=IFCDIRECTION((1.,0.,0.));
#226=IFCAXIS2PLACEMENT3D(#223,#224,#225);
#227=IFCLOCALPLACEMENT(#30,#226);
#228=IFCCARTESIANPOINT((0.,0.));
#229=IFCAXIS2PLACEMENT2D(#228,$);
#230=IFCCIRCLEPROFILEDEF(.AREA.,$,#229,0.012);
#231=IFCCARTESIANPOINT((0.,0.,-0.32000000000000001));
#232=IFCDIRECTION((0.,0.,1.));
#233=IFCDIRECTION((1.,0.,0.));
#234=IFCAXIS2PLACEMENT3D(#231,#232,#233);
#235=IFCDIRECTION((0.,0.,1.));
#236=IFCEXTRUDEDAREASOLID(#230,#234,#235,0.34999999999999998);
#237=IFCCARTESIANPOINT((0.,0.));
#238=IFCAXIS2PLACEMENT2D(#237,$);
#239=IFCCIRCLEPROFILEDEF(.AREA.,$,#238,0.021999999999999999);
#240=IFCCARTESIANPOINT((0.,0.,0.019));
#241=IFCDIRECTION((0.,0.,1.));
#242=IFCDIRECTION((1.,0.,0.));
#243=IFCAXIS2PLACEMENT3D(#240,#241,#242);
#244=IFCDIRECTION((0.,0.,1.));
#245=IFCEXTRUDEDAREASOLID(#239,#243,#244,0.012);
#246=IFCSTYLEDITEM(#236,(#46),'Anchors');
#247=IFCSTYLEDITEM(#245,(#46),'Anchors');
#248=IFCSHAPEREPRESENTATION(#10,'Body','SweptSolid',(#236,#245));
#249=IFCPRODUCTDEFINITIONSHAPE($,$,(#248));
#250=IFCMECHANICALFASTENER('119JuFkW50f97H9SQq51wh',#5,'Anchor 4',$,$,#227,#249,$,0.024,0.34999999999999998);
#251=IFCCARTESIANPOINT((0.,0.));
#252=IFCAXIS2PLACEMENT2D(#251,$);
#253=IFCRECTANGLEPROFILEDEF(.AREA.,$,#252,0.29999999999999999,0.012);
#254=IFCCARTESIANPOINT((0.,-0.13100000000000001,-0.0070000000000000001));
#255=IFCDIRECTION((0.,0.,1.));
#256=IFCDIRECTION((1.,0.,0.));
#257=IFCAXIS2PLACEMENT3D(#254,#255,#256);
#258=IFCDIRECTION((0.,0.,1.));
#259=IFCEXTRUDEDAREASOLID(#253,#257,#258,0.0070000000000000001);
#260=IFCCARTESIANPOINT((0.,0.));
#261=IFCAXIS2PLACEMENT2D(#260,$);
#262=IFCRECTANGLEPROFILEDEF(.AREA.,$,#261,0.29999999999999999,0.012);
#263=IFCCARTESIANPOINT((0.,0.13100000000000001,-0.0070000000000000001));
#264=IFCDIRECTION((0.,0.,1.));
#265=IFCDIRECTION((1.,0.,0.));
#266=IFCAXIS2PLACEMENT3D(#263,#264,#265);
#267=IFCDIRECTION((0.,0.,1.));
#268=IFCEXTRUDEDAREASOLID(#262,#266,#267,0.0070000000000000001);
#269=IFCCARTESIANPOINT((0.,0.));
#270=IFCAXIS2PLACEMENT2D(#269,$);
#271=IFCRECTANGLEPROFILEDEF(.AREA.,$,#270,0.012,0.25);
#272=IFCCARTESIANPOINT((-0.156,0.,-0.0070000000000000001));
#273=IFCDIRECTION((0.,0.,1.));
#274=IFCDIRECTION((1.,0.,0.));
#275=IFCAXIS2PLACEMENT3D(#272,#273,#274);
#276=IFCDIRECTION((0.,0.,1.));
#277=IFCEXTRUDEDAREASOLID(#271,#275,#276,0.0070000000000000001);
#278=IFCCARTESIANPOINT((0.,0.));
#279=IFCAXIS2PLACEMENT2D(#278,$);
#280=IFCRECTANGLEPROFILEDEF(.AREA.,$,#279,0.012,0.25);
#281=IFCCARTESIANPOINT((0.156,0.,-0.0070000000000000001));
#282=IFCDIRECTION((0.,0.,1.));
#283=IFCDIRECTION((1.,0.,0.));
#284=IFCAXIS2PLACEMENT3D(#281,#282,#283);
#285=IFCDIRECTION((0.,0.,1.));
#286=IFCEXTRUDEDAREASOLID(#280,#284,#285,0.0070000000000000001);
#287=IFCCARTESIANPOINT((0.,0.,0.));
#288=IFCDIRECTION((0.,0.,1.));
#289=IFCDIRECTION((1.,0.,0.));
#290=IFCAXIS2PLACEMENT3D(#287,#288,#289);
#291=IFCLOCALPLACEMENT(#30,#290);
#292=IFCSTYLEDITEM(#259,(#50),'Welds');
#293=IFCSTYLEDITEM(#268,(#50),'Welds');
#294=IFCSTYLEDITEM(#277,(#50),'Welds');
#295=IFCSTYLEDITEM(#286,(#50),'Welds');
#296=IFCSHAPEREPRESENTATION(#10,'Body','SweptSolid',(#259,#268,#277,#286));
#297=IFCPRODUCTDEFINITIONSHAPE($,$,(#296));
#298=IFCBUILDINGELEMENTPROXY('1MjLKxYoL9g8cFsQp7yRUN',#5,'Welds',$,$,#291,#297,$,.ELEMENT.);
#299=IFCRELCONTAINEDINSPATIALSTRUCTURE('0n4SuxW8f54vz6Yry8tBHe',#5,$,$,(#102,#120,#138,#166,#194,#222,#250,#298),#31);
ENDSEC;
END-ISO-10303-21;
